#!OML:ASF Y:\EmotionMaleHayes\Project 1\Capture day 1\Session 1\Male1.ASF
:FULLY-SPECIFIED
:DEGREES
211
root 31.3056 15.9384 -1.89879 92.4502 78.9886 91.7104
lowerback 14.8157 1.17687 -14.2202
upperback 2.61664 -0.621379 -4.60132
thorax -5.37646 0.048978 3.15461
lowerneck -30.3534 0.441526 0.0994687
upperneck 18.0068 -0.309259 3.5021
head 10.7421 0.352916 1.22122
rclavicle 3.77691e-015 4.05521e-014
rhumerus -63.6751 13.602 -99.7761
rradius 87.3109
rwrist -20.2404
rhand -28.4513 -19.6311
rfingers 7.12502
rthumb -1.82179 -49.6031
lclavicle 3.77691e-015 4.05521e-014
lhumerus -39.922 -31.8249 92.1057
lradius 90.278
lwrist 18.6764
lhand -40.2626 -33.2089
lfingers 7.12502
lthumb -13.2209 -3.64818
rfemur -10.4692 -8.51302 -1.1888
rtibia 62.68
rfoot -6.46158 -167.244
rtoes 16.2973
lfemur -13.8723 2.5041 -38.6555
ltibia 40.6627
lfoot -204.52 184.296
ltoes 0.254118
212
root 31.7001 15.9913 -1.89441 94.1279 78.842 93.3702
lowerback 15.1609 0.932198 -14.6081
upperback 2.71114 -1.04616 -4.64671
thorax -5.38551 -0.147424 3.39781
lowerneck -30.3479 0.714337 0.123472
upperneck 17.8564 -0.00289931 3.76216
head 10.6799 0.528757 1.36466
rclavicle -1.03368e-014 -4.77083e-014
rhumerus -65.4066 13.217 -99.5265
rradius 86.9388
rwrist -21.3296
rhand -27.8541 -21.4383
rfingers 7.12502
rthumb -1.245 -51.4144
lclavicle -1.03368e-014 -4.77083e-014
lhumerus -36.3926 -31.6372 90.9597
lradius 90.8797
lwrist 16.9848
lhand -39.6847 -33.664
lfingers 7.12502
lthumb -12.6638 -4.06791
rfemur -13.9765 -9.11958 -0.509197
rtibia 62.3717
rfoot -6.18858 -167.836
rtoes 17.5713
lfemur -11.5366 2.75166 -38.5585
ltibia 39.4692
lfoot -205.245 183.635
ltoes -0.380543
213
root 32.0958 16.0553 -1.88479 95.6544 78.6076 94.4959
lowerback 15.3331 0.687491 -15.1615
upperback 2.51569 -1.51535 -4.67308
thorax -5.60147 -0.342188 3.75864
lowerneck -30.5958 0.882077 0.283397
upperneck 18.1876 0.153577 3.72239
head 10.8417 0.611357 1.35881
rclavicle -2.80286e-014 -4.77083e-014
rhumerus -67.5228 12.9517 -99.4027
rradius 86.7193
rwrist -22.1475
rhand -29.116 -18.739
rfingers 7.12502
rthumb -2.46371 -48.7045
lclavicle -2.80286e-014 -4.77083e-014
lhumerus -33.6199 -31.2067 90.2639
lradius 91.9583
lwrist 14.653
lhand -39.5976 -35.3668
lfingers 7.12502
lthumb -12.5798 -5.76558
rfemur -17.8666 -9.67105 0.195486
rtibia 62.423
rfoot -5.85355 -168.035
rtoes 17.8587
lfemur -9.55133 2.78038 -38.5779
ltibia 38.0851
lfoot -205.616 183.028
ltoes -0.476695
214
root 32.5098 16.1352 -1.8744 96.8213 78.7384 95.3755
lowerback 15.5205 0.426597 -15.4303
upperback 2.28029 -1.97456 -4.55252
thorax -5.87132 -0.534696 4.12537
lowerneck -30.5475 1.11715 0.27932
upperneck 18.3882 0.448954 3.81437
head 10.9021 0.758774 1.44767
rclavicle 2.34566e-014 5.00937e-014
rhumerus -69.7643 12.8441 -99.0662
rradius 87.0009
rwrist -21.4379
rhand -28.0821 -20.2077
rfingers 7.12502
rthumb -1.46524 -50.1824
lclavicle 2.34566e-014 5.00937e-014
lhumerus -31.2169 -30.7823 89.7765
lradius 92.7383
lwrist 12.8074
lhand -39.4984 -35.5497
lfingers 7.12502
lthumb -12.4842 -5.94256
rfemur -21.3341 -9.965 1.37784
rtibia 63.1256
rfoot -6.59532 -169.454
rtoes 17.5803
lfemur -7.21424 2.58999 -38.1929
ltibia 36.2744
lfoot -205.524 182.736
ltoes -0.0908067
215
root 32.9432 16.2183 -1.86943 98.8254 78.8422 97.016
lowerback 15.2585 0.0707827 -15.6487
upperback 2.20351 -2.4337 -4.37416
thorax -5.70978 -0.763761 4.5196
lowerneck -30.9381 1.31234 0.381727
upperneck 18.6446 0.691926 3.67841
head 11.0589 0.862198 1.43256
rclavicle 1.76918e-014 3.26007e-014
rhumerus -71.9538 13.0461 -98.9463
rradius 87.1604
rwrist -21.954
rhand -28.589 -19.0019
rfingers 7.12502
rthumb -1.95481 -48.9727
lclavicle 1.76918e-014 3.26007e-014
lhumerus -28.7461 -30.1963 89.3014
lradius 93.6663
lwrist 11.1815
lhand -39.5197 -36.3795
lfingers 7.12502
lthumb -12.5048 -6.77369
rfemur -24.5502 -10.3734 2.44787
rtibia 64.4443
rfoot -6.64089 -168.119
rtoes 14.7491
lfemur -4.75307 1.9918 -37.9255
ltibia 34.1264
lfoot -205.129 182.697
ltoes -0.614123
216
root 33.3868 16.3059 -1.87677 100.75 78.4241 98.4826
lowerback 14.7414 -0.288557 -16.2326
upperback 2.14511 -2.89568 -4.28825
thorax -5.36369 -0.998966 4.99654
lowerneck -31.5933 1.45774 0.668753
upperneck 19.1941 0.911395 2.99724
head 11.3756 0.893683 1.18739
rclavicle -2.98177e-014 -7.63333e-014
rhumerus -73.9779 13.251 -98.5081
rradius 87.5821
rwrist -21.4732
rhand -28.1112 -19.1214
rfingers 7.12502
rthumb -1.49335 -49.0959
lclavicle -2.98177e-014 -7.63333e-014
lhumerus -26.5651 -29.6831 89.0815
lradius 94.6913
lwrist 9.55553
lhand -39.7427 -37.246
lfingers 7.12502
lthumb -12.7198 -7.65341
rfemur -27.698 -10.8163 2.65206
rtibia 66.2266
rfoot -6.31732 -168.481
rtoes 14.4196
lfemur -2.24564 1.36059 -38.3777
ltibia 31.749
lfoot -204.577 182.449
ltoes -2.03722
217
root 33.833 16.4072 -1.89171 104.829 77.6335 102.17
lowerback 14.5135 -0.834999 -16.923
upperback 1.99306 -3.68682 -4.2309
thorax -5.19518 -1.37343 5.55433
lowerneck -31.2474 1.86754 0.741347
upperneck 18.9537 1.53196 2.69706
head 11.2172 1.13164 1.16708
rclavicle 6.95746e-015 1.43125e-014
rhumerus -76.1353 13.5735 -98.0601
rradius 88.0827
rwrist -20.9948
rhand -27.6164 -19.2071
rfingers 7.12502
rthumb -1.01544 -49.1844
lclavicle 6.95746e-015 1.43125e-014
lhumerus -24.8695 -29.1711 89.1293
lradius 95.7542
lwrist 8.79259
lhand -40.098 -38.0436
lfingers 7.12502
lthumb -13.0622 -8.4726
rfemur -30.2446 -11.8227 2.37147
rtibia 68.597
rfoot -6.15096 -168.636
rtoes 13.9901
lfemur 0.370819 0.491929 -39.1173
ltibia 29.3579
lfoot -203.367 181.935
ltoes -4.05431
